<?xml version="1.0" standalone="no"?>
<!DOCTYPE svg PUBLIC "-//W3C//DTD SVG 20010904//EN"
 "http://www.w3.org/TR/2001/REC-SVG-20010904/DTD/svg10.dtd">
<svg version="1.0" xmlns="http://www.w3.org/2000/svg"
 width="800.000000pt" height="800.000000pt" viewBox="0 0 800.000000 800.000000"
 preserveAspectRatio="xMidYMid meet">
<metadata>
Created by potrace 1.14, written by Peter Selinger 2001-2017
</metadata>
<g transform="translate(0.000000,800.000000) scale(0.100000,-0.100000)"
fill="#000000" stroke="none">
<path d="M3069 7965 c-76 -26 -131 -59 -183 -111 -169 -169 -178 -447 -19
-628 45 -50 134 -111 186 -127 l43 -12 -23 -58 c-48 -120 -66 -215 -67 -359 0
-74 3 -157 8 -185 11 -68 59 -212 95 -282 63 -125 184 -269 286 -341 l38 -27
-1254 -5 -1254 -5 -62 -26 c-98 -43 -162 -94 -232 -185 -64 -83 -95 -269 -65
-384 47 -181 199 -328 373 -360 33 -6 391 -10 947 -10 l893 0 1 -2210 c0
-1570 3 -2225 11 -2262 28 -133 139 -271 265 -330 79 -37 92 -40 196 -44 212
-8 386 110 471 318 22 53 22 55 25 961 2 705 5 907 15 908 18 0 455 0 503 0
l40 -1 0 -872 c1 -480 3 -891 7 -913 23 -149 138 -302 272 -360 279 -120 586
18 672 303 16 53 17 204 19 2272 1 1218 2 2218 3 2223 1 4 390 7 865 7 545 0
883 4 917 10 167 32 304 155 364 327 20 57 24 84 21 163 -2 81 -7 106 -35 171
-64 152 -211 269 -366 293 -16 2 -581 5 -1254 5 l-1224 1 29 22 c147 114 239
229 314 391 83 181 112 404 75 587 -2 14 -7 41 -10 60 -3 19 -21 72 -39 117
l-33 83 66 36 c227 123 308 395 188 628 -31 58 -125 149 -187 181 -82 42 -144
55 -240 51 -72 -3 -97 -9 -160 -38 -141 -66 -219 -161 -266 -325 -2 -9 -10
-10 -28 -4 -13 6 -44 13 -67 16 -24 4 -62 10 -84 14 -47 9 -210 7 -275 -3 -45
-7 -147 -32 -173 -42 -10 -4 -17 6 -22 33 -13 70 -63 160 -123 218 -126 123
-302 165 -463 110z"/>
</g>
</svg>
